<svg version="1.1" xmlns="http://www.w3.org/2000/svg" xmlns:xlink="http://www.w3.org/1999/xlink" width="15" height="15" viewBox="0,0,256,256"><g fill="#000000" fill-rule="nonzero" stroke="none" stroke-width="1" stroke-linecap="butt" stroke-linejoin="miter" stroke-miterlimit="10" stroke-dasharray="" stroke-dashoffset="0" font-family="none" font-weight="none" font-size="none" text-anchor="none" style="mix-blend-mode: normal"><g transform="translate(-0.00002,-0.00002)"><g><g transform="translate(8.53333,0) scale(17.06667,17.06667)"><path d="M6.554,9.639c-0.18949,0.19619 -0.18678,0.50804 0.00609,0.70091c0.19287,0.19287 0.50472,0.19558 0.70091,0.00609l2.667,-2.677c0.04702,-0.0469 0.07345,-0.11059 0.07345,-0.177c0,-0.06641 -0.02643,-0.1301 -0.07345,-0.177v0l-2.667,-2.676c-0.19619,-0.18949 -0.50804,-0.18678 -0.70091,0.00609c-0.19287,0.19287 -0.19558,0.50472 -0.00609,0.70091l1.646,1.654h-6.7c-0.27614,0 -0.5,0.22386 -0.5,0.5c0,0.27614 0.22386,0.5 0.5,0.5h6.7zM12,1h-6.5c-0.27614,0 -0.5,0.22386 -0.5,0.5c0,0.27614 0.22386,0.5 0.5,0.5h6c0.27614,0 0.5,0.22386 0.5,0.5v10c0,0.27614 -0.22386,0.5 -0.5,0.5h-6.25c-0.27614,0 -0.5,0.22386 -0.5,0.5c0,0.27614 0.22386,0.5 0.5,0.5h6.75c0.55228,0 1,-0.44772 1,-1v-11c0,-0.55228 -0.44772,-1 -1,-1z"></path></g></g></g></g></svg>