<svg version="1.1" xmlns="http://www.w3.org/2000/svg" xmlns:xlink="http://www.w3.org/1999/xlink" width="143px" height="34px" viewBox="0,0,256,60.85938"><g fill="#000000" fill-rule="nonzero" stroke="none" stroke-width="1" stroke-linecap="butt" stroke-linejoin="miter" stroke-miterlimit="10" stroke-dasharray="" stroke-dashoffset="0" font-family="none" font-weight="none" font-size="none" text-anchor="none" style="mix-blend-mode: normal"><g transform="translate(-0.67885,0.5365) scale(1.79021,1.79021)"><path d="M0.8764,6.81818v26.18182h3.75853v-18.9588h0.24289l7.72158,18.9204h3.1193l7.7216,-18.9076h0.2429v18.946h3.7585v-26.18182h-4.794l-8.3352,20.35232h-0.3068l-8.33526,-20.35232z"></path><path d="M42.0092,33.3963c4.2827,0 7.3125,-2.1094 8.1818,-5.3054l-3.6179,-0.652c-0.6903,1.8537 -2.3522,2.7997 -4.5255,2.7997c-3.2728,0 -5.4716,-2.1221 -5.5739,-5.9062h13.9602v-1.3551c0,-7.0952 -4.2443,-9.8693 -8.6931,-9.8693c-5.4716,0 -9.0768,4.1676 -9.0768,10.2017c0,6.098 3.554,10.0866 9.3452,10.0866zM36.4865,21.4688c0.1534,-2.787 2.1733,-5.2032 5.2798,-5.2032c2.9659,0 4.9091,2.1989 4.9219,5.2032z"></path><path d="M69.3895,18.1577c-0.7926,-3.0554 -3.1832,-5.0497 -7.4275,-5.0497c-4.4361,0 -7.581,2.3394 -7.581,5.8167c0,2.7869 1.6875,4.6406 5.3693,5.4588l3.3239,0.7287c1.892,0.4219 2.7742,1.2656 2.7742,2.4929c0,1.5213 -1.6236,2.7102 -4.1293,2.7102c-2.2884,0 -3.7585,-0.9843 -4.2188,-2.9147l-3.6946,0.5625c0.6392,3.4772 3.5284,5.4332 7.939,5.4332c4.7429,0 8.0284,-2.5185 8.0284,-6.0724c0,-2.7742 -1.7642,-4.4873 -5.3694,-5.3182l-3.1193,-0.7159c-2.1605,-0.5114 -3.0937,-1.2401 -3.0809,-2.5696c-0.0128,-1.5086 1.6235,-2.5824 3.7968,-2.5824c2.3779,0 3.4773,1.3167 3.9248,2.6335z"></path><path d="M83.142,13.3636h-4.027v-4.70451h-3.8224v4.70451h-2.8764v3.0682h2.8764v11.5952c-0.0128,3.5668 2.7102,5.2926 5.7273,5.2287c1.2145,-0.0128 2.0326,-0.2429 2.4801,-0.4091l-0.6904,-3.1577c-0.2556,0.0512 -0.7286,0.1662 -1.3423,0.1662c-1.24,0 -2.3523,-0.4091 -2.3523,-2.6207v-10.8026h4.027z"></path><path d="M95.4307,33.3963c5.5353,0 9.1533,-4.0525 9.1533,-10.125c0,-6.1108 -3.618,-10.1633 -9.1533,-10.1633c-5.5355,0 -9.1534,4.0525 -9.1534,10.1633c0,6.0725 3.6179,10.125 9.1534,10.125zM95.4435,30.1875c-3.6179,0 -5.3054,-3.1577 -5.3054,-6.929c0,-3.7585 1.6875,-6.9545 5.3054,-6.9545c3.5924,0 5.2795,3.196 5.2795,6.9545c0,3.7713 -1.6871,6.929 -5.2795,6.929z"></path><path d="M108.057,9h1.057v-3.40909h1.909c0.076,0 0.149,0 0.221,-0.00426l1.841,3.41335h1.227l-1.973,-3.60511c1.113,-0.37927 1.633,-1.28694 1.633,-2.44603c0,-1.54261 -0.921,-2.67613 -2.966,-2.67613h-2.949zM109.114,4.63636v-3.42613h1.858c1.414,0 1.96,0.69034 1.96,1.73863c0,1.0483 -0.546,1.6875 -1.943,1.6875z"></path><path d="M119.721,6.32386c0,1.22728 -0.937,1.78978 -1.687,1.78978c-0.836,0 -1.432,-0.61364 -1.432,-1.56819v-4.0909h-1.006v4.15909c0,1.67045 0.887,2.47159 2.114,2.47159c0.988,0 1.636,-0.52841 1.943,-1.19318h0.068v1.10795h1.006v-6.54545h-1.006z"></path><path d="M127.205,3.92045c-0.315,-0.92897 -1.022,-1.55113 -2.318,-1.55113c-1.381,0 -2.403,0.78409 -2.403,1.89204c0,0.90341 0.537,1.50853 1.738,1.78978l1.091,0.25568c0.661,0.15341 0.972,0.46875 0.972,0.92045c0,0.5625 -0.597,1.02273 -1.534,1.02273c-0.823,0 -1.338,-0.35369 -1.517,-1.05682l-0.955,0.23864c0.234,1.11221 1.151,1.70454 2.489,1.70454c1.521,0 2.557,-0.83096 2.557,-1.96022c0,-0.91194 -0.571,-1.48722 -1.739,-1.77273l-0.972,-0.23864c-0.775,-0.19176 -1.125,-0.4517 -1.125,-0.95454c0,-0.5625 0.597,-0.97159 1.398,-0.97159c0.878,0 1.24,0.48579 1.415,0.9375z"></path><path d="M133.475,3.92045c-0.316,-0.92897 -1.023,-1.55113 -2.318,-1.55113c-1.381,0 -2.404,0.78409 -2.404,1.89204c0,0.90341 0.537,1.50853 1.739,1.78978l1.091,0.25568c0.66,0.15341 0.971,0.46875 0.971,0.92045c0,0.5625 -0.596,1.02273 -1.534,1.02273c-0.822,0 -1.338,-0.35369 -1.517,-1.05682l-0.954,0.23864c0.234,1.11221 1.15,1.70454 2.488,1.70454c1.522,0 2.557,-0.83096 2.557,-1.96022c0,-0.91194 -0.571,-1.48722 -1.739,-1.77273l-0.971,-0.23864c-0.776,-0.19176 -1.125,-0.4517 -1.125,-0.95454c0,-0.5625 0.596,-0.97159 1.398,-0.97159c0.877,0 1.24,0.48579 1.414,0.9375z"></path><path d="M135.108,9h1.006v-6.54545h-1.006zM135.619,1.36364c0.392,0 0.716,-0.30682 0.716,-0.68182c0,-0.375 -0.324,-0.68182 -0.716,-0.68182c-0.392,0 -0.716,0.30682 -0.716,0.68182c0,0.375 0.324,0.68182 0.716,0.68182z"></path><path d="M139.882,9.15341c1.142,0 1.738,-0.61364 1.943,-1.03977h0.051v0.88636h1.006v-4.3125c0,-2.07955 -1.586,-2.31818 -2.421,-2.31818c-0.988,0 -2.113,0.34091 -2.625,1.53409l0.955,0.34091c0.221,-0.47727 0.746,-0.98864 1.704,-0.98864c0.925,0 1.381,0.49006 1.381,1.32955v0.03409c0,0.48579 -0.494,0.44318 -1.687,0.59659c-1.215,0.15767 -2.54,0.42614 -2.54,1.92614c0,1.2784 0.988,2.01136 2.233,2.01136zM140.035,8.25c-0.801,0 -1.381,-0.35795 -1.381,-1.05682c0,-0.76704 0.699,-1.00568 1.483,-1.10795c0.427,-0.05114 1.569,-0.17046 1.739,-0.375v0.92045c0,0.81818 -0.648,1.61932 -1.841,1.61932z"></path></g></g></svg>