<svg version="1.1" xmlns="http://www.w3.org/2000/svg" xmlns:xlink="http://www.w3.org/1999/xlink" width="36" height="36" viewBox="0,0,256,256"><g fill="none" fill-rule="nonzero" stroke="none" stroke-width="1" stroke-linecap="butt" stroke-linejoin="miter" stroke-miterlimit="10" stroke-dasharray="" stroke-dashoffset="0" font-family="none" font-weight="none" font-size="none" text-anchor="none" style="mix-blend-mode: normal"><g transform="scale(7.11111,7.11111)"><path d="M18,6.31c0.55228,0 1,-0.44772 1,-1v-3.4c0,-0.55228 -0.44772,-1 -1,-1c-0.55228,0 -1,0.44772 -1,1v3.4c0,0.55228 0.44772,1 1,1z" fill="#ffffff"></path><path d="M18,29.69c-0.55228,0 -1,0.44772 -1,1v3.4c0,0.55228 0.44772,1 1,1c0.55228,0 1,-0.44772 1,-1v-3.4c0,-0.55228 -0.44772,-1 -1,-1z" fill="#ffffff"></path><path d="M8.32,9.74c0.18595,0.16903 0.42872,0.26185 0.68,0.26c0.2658,0.00154 0.52128,-0.10281 0.71,-0.29c0.18931,-0.18777 0.2958,-0.44336 0.2958,-0.71c0,-0.26664 -0.10649,-0.52223 -0.2958,-0.71l-2.38,-2.37c-0.39676,-0.33978 -0.98819,-0.31693 -1.35756,0.05244c-0.36937,0.36937 -0.39221,0.9608 -0.05244,1.35756z" fill="#ffffff"></path><path d="M27.68,26.26c-0.39212,-0.39212 -1.02788,-0.39212 -1.42,0c-0.39212,0.39212 -0.39212,1.02788 0,1.42l2.41,2.4c0.18707,0.19086 0.44275,0.29889 0.71,0.3c0.26377,-0.00376 0.51537,-0.11159 0.7,-0.3c0.38772,-0.39004 0.38772,-1.01996 0,-1.41z" fill="#ffffff"></path><path d="M6.31,18c0,-0.55228 -0.44772,-1 -1,-1h-3.4c-0.55228,0 -1,0.44772 -1,1c0,0.55228 0.44772,1 1,1h3.4c0.55228,0 1,-0.44772 1,-1z" fill="#ffffff"></path><path d="M34.09,17h-3.4c-0.55228,0 -1,0.44772 -1,1c0,0.55228 0.44772,1 1,1h3.4c0.55228,0 1,-0.44772 1,-1c0,-0.55228 -0.44772,-1 -1,-1z" fill="#ffffff"></path><path d="M8.32,26.26l-2.4,2.41c-0.28716,0.28481 -0.37449,0.71455 -0.22127,1.08885c0.15322,0.3743 0.51682,0.61945 0.92127,0.62115c0.26725,-0.00111 0.52293,-0.10914 0.71,-0.3l2.41,-2.4c0.39212,-0.39212 0.39212,-1.02788 0,-1.42c-0.39212,-0.39212 -1.02788,-0.39212 -1.42,0z" fill="#ffffff"></path><path d="M27,10c0.2658,0.00154 0.52128,-0.10281 0.71,-0.29l2.4,-2.41c0.38772,-0.39004 0.38772,-1.01996 0,-1.41c-0.39004,-0.38772 -1.01996,-0.38772 -1.41,0l-2.41,2.4c-0.18931,0.18777 -0.2958,0.44336 -0.2958,0.71c0,0.26664 0.10649,0.52223 0.2958,0.71c0.18872,0.18719 0.4442,0.29154 0.71,0.29z" fill="#ffffff"></path><path d="M18.13,7.75c-4.10862,-0.05273 -7.8421,2.38165 -9.45107,6.16249c-1.60897,3.78084 -0.77468,8.15908 2.11197,11.08326c2.88665,2.92418 7.25375,3.81495 11.05506,2.25494c3.80131,-1.56001 6.2837,-5.26173 6.28404,-9.37069c0.02773,-5.55542 -4.44468,-10.08598 -10,-10.13zM18.13,26c-3.30051,0.05278 -6.30531,-1.8953 -7.60417,-4.92995c-1.29886,-3.03465 -0.63391,-6.55342 1.68276,-8.90483c2.31667,-2.35142 5.82515,-3.06868 8.8788,-1.81514c3.05365,1.25353 5.04625,4.229 5.04261,7.52993c0.02223,4.44699 -3.55318,8.07603 -8,8.12z" fill="#ffffff"></path><rect x="0" y="0" width="36" height="36" fill-opacity="0" fill="#000000"></rect></g></g></svg>